<?xml version="1.0" standalone="no"?>
<!DOCTYPE svg PUBLIC "-//W3C//DTD SVG 20010904//EN"
 "http://www.w3.org/TR/2001/REC-SVG-20010904/DTD/svg10.dtd">
<svg version="1.0" xmlns="http://www.w3.org/2000/svg"
 width="500.000000pt" height="500.000000pt" viewBox="0 0 500.000000 500.000000"
 preserveAspectRatio="xMidYMid meet">
<metadata>
Created by potrace 1.16, written by Peter Selinger 2001-2019
</metadata>
<g transform="translate(0.000000,500.000000) scale(0.100000,-0.100000)"
fill="#000000" stroke="none">
<path d="M2295 3850 c-149 -24 -350 -95 -475 -169 -339 -202 -571 -521 -655
-901 -26 -118 -31 -375 -11 -501 94 -569 529 -1013 1102 -1125 131 -26 387
-24 514 4 275 60 499 181 696 377 193 191 317 422 375 698 29 135 31 369 4
507 -53 282 -181 523 -382 722 -198 195 -411 312 -679 373 -83 19 -400 28
-489 15z"/>
</g>
</svg>
